<?xml version="1.0" encoding="utf-8"?>
<!-- Generator: Adobe Illustrator 19.1.0, SVG Export Plug-In . SVG Version: 6.00 Build 0)  -->
<svg version="1.1" id="Layer_1" xmlns="http://www.w3.org/2000/svg" xmlns:xlink="http://www.w3.org/1999/xlink" x="0px" y="0px"
	 viewBox="0 0 1210.9 55" style="enable-background:new 0 0 1210.9 55;" xml:space="preserve">
<style type="text/css">
	.st0{fill:#FFFFFF;}
</style>
<g>
	<g>
		<path class="st0" d="M15.9,13.9H0V1.1h46.4v12.8H30.5v40H15.9V13.9z"/>
		<path class="st0" d="M90.5,1.1h14.7v19.8H124V1.1h14.7v52.9H124V33.8h-18.8v20.1H90.5V1.1z"/>
		<path class="st0" d="M185.8,1.1h42.5v12.5h-28v8h25.4v11.6h-25.4v8.4h28.4v12.5h-42.9V1.1z"/>
		<path class="st0" d="M332.6,1.1h13.7L368,29V1.1h14.5v52.9h-12.8l-22.6-29v29h-14.5V1.1z"/>
		<path class="st0" d="M429.6,1.1h42.5v12.5h-28v8h25.4v11.6h-25.4v8.4h28.4v12.5h-42.9V1.1z"/>
		<path class="st0" d="M515.5,27.6v-0.2c0-15.2,12.2-27.5,28.5-27.5c16.3,0,28.4,12.2,28.4,27.3v0.2c0,15.2-12.2,27.5-28.5,27.5
			C527.6,55,515.5,42.8,515.5,27.6z M557.5,27.6v-0.2c0-7.6-5.5-14.3-13.6-14.3c-8,0-13.4,6.5-13.4,14.1v0.2
			c0,7.6,5.5,14.3,13.5,14.3C552.2,41.8,557.5,35.3,557.5,27.6z"/>
		<path class="st0" d="M617.8,1.1h13.7L653.3,29V1.1h14.5v52.9h-12.8l-22.6-29v29h-14.5V1.1z"/>
		<path class="st0" d="M773.6,1.1h20.4c18.9,0,29.8,10.9,29.8,26.1v0.2c0,15.3-11.1,26.6-30.1,26.6h-20.1V1.1z M794.2,40.9
			c8.8,0,14.6-4.8,14.6-13.4v-0.2c0-8.5-5.8-13.4-14.6-13.4h-6v26.9H794.2z"/>
		<path class="st0" d="M869.1,1.1h42.5v12.5h-28v8H909v11.6h-25.4v8.4H912v12.5h-42.9V1.1z"/>
		<path class="st0" d="M957.2,1.1h15.5l12.6,20.5l12.6-20.5h15.5v52.9h-14.6V23.6l-13.5,20.7H985l-13.4-20.5v30.2h-14.3V1.1z"/>
		<path class="st0" d="M1058.7,27.6v-0.2c0-15.2,12.2-27.5,28.5-27.5c16.3,0,28.4,12.2,28.4,27.3v0.2c0,15.2-12.2,27.5-28.5,27.5
			C1070.8,55,1058.7,42.8,1058.7,27.6z M1100.7,27.6v-0.2c0-7.6-5.5-14.3-13.6-14.3c-8,0-13.4,6.5-13.4,14.1v0.2
			c0,7.6,5.5,14.3,13.5,14.3C1095.3,41.8,1100.7,35.3,1100.7,27.6z"/>
		<path class="st0" d="M1161,1.1h13.7l21.8,27.9V1.1h14.5v52.9h-12.8l-22.6-29v29H1161V1.1z"/>
	</g>
</g>
</svg>
