<?xml version="1.0" encoding="utf-8"?>
<!-- Generator: Adobe Illustrator 19.1.0, SVG Export Plug-In . SVG Version: 6.00 Build 0)  -->
<svg version="1.1" id="Layer_1" xmlns="http://www.w3.org/2000/svg" xmlns:xlink="http://www.w3.org/1999/xlink" x="0px" y="0px"
	 viewBox="-281 256.1 519.5 63.9" style="enable-background:new -281 256.1 519.5 63.9;" xml:space="preserve">
<style type="text/css">
	.st0{fill:#FFFFFF;}
</style>
<g>
	<path class="st0" d="M-281,317.5h2.4l7.1-18.1h25.1l7.1,18.1h6.5l-24.1-61.4L-281,317.5z M-258.9,267.3l11.8,29.9h-23.5
		L-258.9,267.3z"/>
	<polygon class="st0" points="-191.3,309.9 -217.6,256.3 -226.6,317.5 -224.4,317.5 -217.5,270.1 -193.4,319.2 -168.9,269.7 
		-161.8,317.5 -155.7,317.5 -164.7,256.3 	"/>
	<path class="st0" d="M-149.5,317.5h2.4l7.1-18.1h25.1l7.1,18.1h6.5l-24.1-61.4L-149.5,317.5z M-115.6,297.2h-23.5l11.8-29.9
		L-115.6,297.2z"/>
	<path class="st0" d="M-78.4,290.8c2.8,0,5.4-0.4,7.8-1c2.4-0.7,4.6-1.6,6.5-2.9c1.9-1.3,3.5-3,4.6-5.1c1.1-2.1,1.7-4.5,1.7-7.2
		c0-2.7-0.6-5.1-1.7-7.2c-1.1-2.1-2.7-3.8-4.6-5.1c-1.9-1.3-4.1-2.2-6.5-2.9c-2.4-0.7-5-1-7.8-1h-15.8v59.1h6.1v-25l32,25h3.5
		l-34-26.7H-78.4z M-88,260.6h8.9c4.9,0,8.6,1.2,11.1,3.6c2.4,2.4,3.7,6,3.7,10.5s-1.2,8-3.7,10.4c-2.5,2.4-6.3,3.6-11.2,3.6H-88
		V260.6z"/>
	<g>
		<polygon class="st0" points="-25.1,317.9 8.3,317.9 8.3,315.6 -18.6,315.6 -18.6,289 4.1,289 4.1,286.4 -18.6,286.4 -18.6,260.8 
			8.3,260.8 8.3,258.2 -25.1,258.2 		"/>
		<polygon class="st0" points="23.3,258.2 16.8,258.2 16.8,317.9 47.1,317.9 47.1,315.3 23.3,315.3 		"/>
		<path class="st0" d="M123.4,307.8v5.2l-0.3,0.3c-5.2,3.9-11.6,5.7-19.7,5.7c0,0-0.1,0-0.1,0c0,0-0.1,0-0.2,0
			c-5.7,0-10.9-1.3-15.5-3.9c-4.7-2.6-8.3-6.2-10.9-10.9c0-0.1-0.1-0.2-0.1-0.3c0-0.1-0.1-0.1-0.1-0.2c-2.6-4.7-4.1-10.1-4.1-15.8
			s1.3-11.1,4.1-15.8c2.6-4.7,6.5-8.5,11.1-11.1c4.7-2.6,10.1-4.1,15.8-4.1c6.5,0,12.7,1.3,18.1,4.1l0.3,0.3v4.9l-1-0.8
			c-4.9-3.9-10.9-5.9-17.3-5.9c-4.4,0-8.5,1.3-12.2,3.6c-3.6,2.6-6.5,6-8.5,10.3c-2.1,4.4-3.1,9.3-3.1,14.5c0,5.2,1,10.1,3.1,14.5
			c2.1,4.4,4.9,7.8,8.5,10.4c3.6,2.6,7.8,3.6,12.2,3.6c3.6,0,7-0.8,10.4-2.1c3.4-1.3,6.2-3.4,8.5-5.4L123.4,307.8z"/>
		<rect x="133.2" y="258.2" class="st0" width="6.5" height="59.8"/>
		<polygon class="st0" points="193,307.1 149.8,256.1 149.8,317.9 152.4,317.9 152.4,269 195.6,320 195.6,258.2 193,258.2 		"/>
		<polygon class="st0" points="238.5,260.8 238.5,258.2 205.1,258.2 205.1,317.9 238.5,317.9 238.5,315.6 211.6,315.6 211.6,289 
			234.4,289 234.4,286.4 211.6,286.4 211.6,260.8 		"/>
	</g>
</g>
</svg>
