<?xml version="1.0" encoding="utf-8"?>
<!-- Generator: Adobe Illustrator 19.1.0, SVG Export Plug-In . SVG Version: 6.00 Build 0)  -->
<svg version="1.1" id="Layer_1" xmlns="http://www.w3.org/2000/svg" xmlns:xlink="http://www.w3.org/1999/xlink" x="0px" y="0px"
	 viewBox="0 0 164.1 43.6" style="enable-background:new 0 0 164.1 43.6;" xml:space="preserve">
<style type="text/css">
	.st0{fill:#FFFFFF;}
</style>
<g>
	<g>
		<path class="st0" d="M25,2l-1.4,5.9h-1.2c-0.1-1-0.5-1.9-1-2.9c-0.6-0.9-1.1-1.5-1.8-1.5c-0.3,0-0.7-0.1-1.2-0.1s-1,0-1.4,0h-3.5
			l-2,8.8h2.2c0.6,0,1.1-0.1,1.6-0.2c0.5-0.1,1-0.4,1.5-0.8c0.3-0.3,0.7-0.7,1.1-1.3c0.4-0.6,0.7-1.1,0.8-1.6h1.2l-2.2,9.3h-1.2
			v-0.5c0-0.5-0.1-1.1-0.2-1.6c-0.1-0.5-0.2-0.8-0.4-1c-0.3-0.4-0.6-0.6-1-0.8c-0.4-0.2-0.9-0.3-1.6-0.3h-2.2l-1.7,7.1
			c0,0.2-0.1,0.3-0.1,0.5s0,0.3,0,0.4c0,0.5,0.2,0.8,0.6,1s1.1,0.4,2.2,0.5L12,24.2H0L0.3,23c0.3,0,0.6,0,1.2-0.1
			c0.5-0.1,0.9-0.1,1.1-0.2c0.4-0.1,0.7-0.3,0.9-0.6c0.2-0.3,0.4-0.6,0.4-1L7.5,5.6c0.1-0.2,0.1-0.4,0.1-0.5c0-0.1,0-0.3,0-0.3
			c0-0.4-0.2-0.8-0.7-1C6.6,3.5,5.8,3.3,4.8,3.2L5.1,2H25z"/>
		<path class="st0" d="M33.5,22l-0.3,1.4c-1,0.4-1.9,0.7-2.5,0.9c-0.6,0.2-1.3,0.3-2.1,0.3c-1.3,0-2.2-0.3-2.9-0.9
			c-0.7-0.6-1-1.4-1-2.3c0-0.4,0-0.7,0.1-1.1c0.1-0.4,0.1-0.8,0.3-1.3l1.3-4.6c0.1-0.4,0.2-0.9,0.3-1.2s0.1-0.7,0.1-1.1
			c0-0.6-0.1-1-0.4-1.2c-0.2-0.2-0.7-0.3-1.4-0.3c-0.3,0-0.7,0.1-1,0.2c-0.4,0.1-0.7,0.2-0.9,0.3l0.3-1.4c0.8-0.3,1.7-0.6,2.4-0.9
			c0.8-0.2,1.5-0.4,2.2-0.4c1.2,0,2.2,0.3,2.9,0.9c0.7,0.6,1,1.4,1,2.3c0,0.2,0,0.5-0.1,1s-0.1,1-0.3,1.4l-1.3,4.5
			c-0.1,0.4-0.2,0.8-0.3,1.3s-0.1,0.8-0.1,1.1c0,0.6,0.1,1,0.4,1.2s0.7,0.3,1.4,0.3c0.3,0,0.7-0.1,1.1-0.2S33.3,22,33.5,22z
			 M33.8,2.9c0,0.8-0.3,1.5-0.9,2c-0.6,0.6-1.3,0.8-2.2,0.8s-1.6-0.3-2.2-0.8c-0.6-0.6-0.9-1.2-0.9-2c0-0.8,0.3-1.5,0.9-2
			C29.2,0.3,29.9,0,30.8,0s1.6,0.3,2.2,0.8C33.5,1.4,33.8,2.1,33.8,2.9z"/>
		<path class="st0" d="M53.8,14.3c0,1.4-0.2,2.8-0.7,4c-0.5,1.3-1.2,2.4-2.1,3.3c-0.9,1-2.1,1.7-3.4,2.3c-1.3,0.5-2.8,0.8-4.3,0.8
			c-0.4,0-1,0-1.7-0.1c-0.8-0.1-1.4-0.2-2-0.4c-0.8-0.3-1.5-0.6-2.1-1.1c-0.7-0.5-1.2-1.1-1.7-1.9l3.9-16.8c0-0.2,0.1-0.3,0.1-0.5
			c0-0.2,0-0.3,0-0.4c0-0.3-0.1-0.6-0.2-0.9C39.4,2.3,39.3,2.1,39,2c-0.2-0.1-0.5-0.2-0.9-0.3S37.5,1.6,37,1.6l0.3-1.2L45.5,0
			l0.2,0.3l-2.4,10.1h0.1c0.2-0.2,0.5-0.4,0.8-0.6s0.7-0.4,1.1-0.7c0.4-0.2,0.8-0.4,1.4-0.5c0.6-0.2,1.1-0.2,1.6-0.2
			c1.8,0,3.2,0.5,4.1,1.6C53.3,11,53.8,12.5,53.8,14.3z M48.2,14.3c0-0.5,0-1-0.1-1.4c-0.1-0.4-0.2-0.8-0.4-1.1
			c-0.2-0.3-0.4-0.6-0.8-0.8c-0.3-0.2-0.7-0.3-1.2-0.3c-0.5,0-1,0.1-1.5,0.4c-0.5,0.3-0.9,0.6-1.3,1l-2,8.7c0,0.3,0,0.5,0.1,0.8
			c0.1,0.3,0.2,0.5,0.4,0.8c0.2,0.3,0.4,0.5,0.7,0.7s0.6,0.2,1.1,0.2c0.7,0,1.4-0.3,2-0.8c0.6-0.5,1.1-1.2,1.6-2.1
			c0.5-0.9,0.8-1.9,1-2.9S48.2,15.5,48.2,14.3z"/>
		<path class="st0" d="M74.1,14.8c0,1.3-0.3,2.6-0.8,3.8c-0.5,1.2-1.2,2.2-2.1,3.1c-1,0.9-2.1,1.7-3.5,2.2s-2.8,0.8-4.5,0.8
			c-2.2,0-4-0.6-5.4-1.8c-1.4-1.2-2-2.8-2-4.8c0-1.4,0.3-2.7,0.8-3.9s1.2-2.2,2.2-3.1c0.9-0.9,2-1.5,3.4-2.1
			c1.3-0.5,2.8-0.8,4.3-0.8c2.4,0,4.2,0.6,5.6,1.7C73.4,11.2,74.1,12.8,74.1,14.8z M68.6,13.1c0-1.2-0.2-2.1-0.6-2.7
			c-0.4-0.6-1-0.9-1.8-0.9c-0.8,0-1.5,0.3-2.2,1c-0.7,0.6-1.2,1.6-1.6,2.8c-0.4,1-0.6,2.1-0.8,3.4s-0.2,2.3-0.2,3.2
			c0,1.3,0.2,2.2,0.6,2.7c0.4,0.6,1,0.9,1.8,0.9c0.9,0,1.6-0.3,2.2-1c0.6-0.7,1.1-1.6,1.5-2.6c0.4-1,0.6-2.1,0.8-3.3
			C68.5,15.3,68.6,14.2,68.6,13.1z"/>
		<path class="st0" d="M96.8,21.8l-0.3,1.4c-1,0.4-1.9,0.7-2.5,0.9c-0.6,0.2-1.3,0.3-2.1,0.3c-1.2,0-2.2-0.3-2.9-0.9
			c-0.7-0.6-1-1.4-1-2.3c0-0.3,0-0.6,0-1c0-0.4,0.1-0.9,0.3-1.5l1.1-4.2c0.1-0.4,0.2-0.9,0.3-1.2c0.1-0.4,0.1-0.7,0.1-0.9
			c0-0.5-0.1-0.9-0.4-1.2S88.7,11,88.1,11c-0.4,0-0.9,0.1-1.5,0.4c-0.7,0.3-1.4,0.8-2.2,1.5l-2.6,11.3h-5.2l2.2-9.6
			c0.1-0.3,0.1-0.7,0.2-1.1c0.1-0.5,0.1-0.9,0.1-1.2c0-0.6-0.1-1-0.4-1.2c-0.2-0.2-0.7-0.3-1.3-0.3c-0.3,0-0.7,0.1-1,0.2
			c-0.3,0.1-0.6,0.2-0.9,0.3L76,9.8c0.8-0.3,1.7-0.6,2.4-0.9c0.8-0.2,1.5-0.4,2.2-0.4c1.2,0,2.1,0.2,2.8,0.7c0.6,0.5,1,1.2,1.2,2
			h0.1c1-0.9,2.1-1.6,3.2-2.2s2.2-0.8,3.5-0.8c1.2,0,2.1,0.3,2.7,1c0.7,0.6,1,1.4,1,2.3c0,0.2,0,0.6-0.1,1c0,0.4-0.1,0.9-0.3,1.4
			l-1.2,4.4c-0.1,0.4-0.2,0.8-0.3,1.3s-0.1,0.8-0.1,1.1c0,0.6,0.1,1,0.4,1.2s0.7,0.3,1.4,0.3c0.3,0,0.7-0.1,1.1-0.2
			C96.3,22,96.6,21.9,96.8,21.8z"/>
		<path class="st0" d="M109.1,22.2H109c-0.4,0.3-0.7,0.6-1,0.9c-0.3,0.3-0.7,0.5-1.2,0.8c-0.4,0.2-0.9,0.4-1.4,0.6
			c-0.5,0.1-1,0.2-1.6,0.2c-1.8,0-3.2-0.5-4.1-1.6c-0.9-1.1-1.4-2.5-1.4-4.4c0-1.4,0.3-2.8,0.8-4s1.2-2.3,2-3.3
			c0.9-0.9,1.9-1.7,3-2.2c1.2-0.5,2.4-0.8,3.7-0.8c0.9,0,1.8,0.1,2.5,0.3c0.7,0.2,1.3,0.5,1.7,0.9l4.8-1l0.2,0.3l-2.3,9.6
			c-0.1,0.3-0.2,0.7-0.3,1.2s-0.1,0.9-0.1,1.1c0,0.6,0.1,1,0.4,1.2c0.3,0.2,0.7,0.3,1.4,0.3c0.3,0,0.6-0.1,1.1-0.2
			c0.4-0.1,0.7-0.2,0.9-0.3l-0.3,1.4c-1,0.4-1.9,0.7-2.5,0.9s-1.3,0.3-2.1,0.3c-1.1,0-1.9-0.2-2.6-0.6S109.4,22.9,109.1,22.2z
			 M111,12.3c0-0.2,0-0.5-0.1-0.8s-0.2-0.6-0.3-0.8c-0.2-0.3-0.4-0.5-0.7-0.6c-0.3-0.1-0.7-0.2-1.1-0.2c-0.7,0-1.3,0.2-1.9,0.7
			c-0.6,0.5-1.1,1.2-1.5,2c-0.4,0.8-0.8,1.8-1,2.8c-0.3,1.1-0.4,2.2-0.4,3.3c0,0.5,0,1,0.1,1.4c0.1,0.4,0.2,0.8,0.4,1.1
			c0.2,0.3,0.4,0.6,0.8,0.7s0.7,0.3,1.2,0.3c0.5,0,1-0.1,1.4-0.4c0.5-0.3,0.9-0.6,1.3-1.1L111,12.3z"/>
		<path class="st0" d="M127.1,24.7c-2.4,0-4.3-0.6-5.6-1.8c-1.3-1.2-2-2.8-2-4.9c0-1.3,0.2-2.5,0.6-3.6c0.4-1.1,1.1-2.2,2-3.1
			c0.8-0.9,1.9-1.6,3.2-2.1c1.3-0.6,2.7-0.8,4.3-0.8c1.8,0,3.3,0.3,4.2,1c1,0.7,1.5,1.6,1.5,2.8c0,0.3-0.1,0.7-0.2,1.1
			c-0.1,0.4-0.3,0.7-0.5,1c-0.3,0.3-0.5,0.6-0.9,0.8c-0.3,0.2-0.8,0.3-1.4,0.3c-0.8,0-1.4-0.2-1.9-0.6c-0.5-0.4-0.7-0.8-0.7-1.3
			c0-0.5,0.1-1,0.3-1.5c0.2-0.5,0.5-1,0.8-1.6c-0.1-0.1-0.3-0.3-0.6-0.4c-0.3-0.2-0.7-0.3-1.1-0.3c-1.2,0-2.2,0.7-3,2.2
			c-0.8,1.5-1.2,3.3-1.2,5.5c0,1.7,0.3,2.9,0.9,3.8c0.6,0.9,1.5,1.3,2.6,1.3c1.1,0,2.1-0.2,2.9-0.7c0.8-0.4,1.5-1.2,2.4-2.3l1.1,1
			c-0.9,1.3-2,2.4-3.4,3.2S128.6,24.7,127.1,24.7z"/>
		<path class="st0" d="M144.2,24.7c-2.4,0-4.3-0.6-5.6-1.8c-1.3-1.2-2-2.8-2-4.9c0-1.3,0.2-2.5,0.6-3.6c0.4-1.1,1.1-2.2,2-3.1
			c0.8-0.9,1.9-1.6,3.2-2.1c1.3-0.6,2.7-0.8,4.3-0.8c1.8,0,3.3,0.3,4.2,1c1,0.7,1.5,1.6,1.5,2.8c0,0.3-0.1,0.7-0.2,1.1
			c-0.1,0.4-0.3,0.7-0.5,1c-0.3,0.3-0.5,0.6-0.9,0.8c-0.3,0.2-0.8,0.3-1.4,0.3c-0.8,0-1.4-0.2-1.9-0.6c-0.5-0.4-0.7-0.8-0.7-1.3
			c0-0.5,0.1-1,0.3-1.5c0.2-0.5,0.5-1,0.8-1.6c-0.1-0.1-0.3-0.3-0.6-0.4c-0.3-0.2-0.7-0.3-1.1-0.3c-1.2,0-2.2,0.7-3,2.2
			c-0.8,1.5-1.2,3.3-1.2,5.5c0,1.7,0.3,2.9,0.9,3.8c0.6,0.9,1.5,1.3,2.6,1.3c1.1,0,2.1-0.2,2.9-0.7c0.8-0.4,1.5-1.2,2.4-2.3l1.1,1
			c-0.9,1.3-2,2.4-3.4,3.2S145.8,24.7,144.2,24.7z"/>
		<path class="st0" d="M163.8,22l-0.3,1.4c-1,0.4-1.9,0.7-2.5,0.9c-0.6,0.2-1.3,0.3-2.1,0.3c-1.3,0-2.2-0.3-2.9-0.9
			c-0.7-0.6-1-1.4-1-2.3c0-0.4,0-0.7,0.1-1.1c0.1-0.4,0.1-0.8,0.3-1.3l1.3-4.6c0.1-0.4,0.2-0.9,0.3-1.2s0.1-0.7,0.1-1.1
			c0-0.6-0.1-1-0.4-1.2c-0.2-0.2-0.7-0.3-1.4-0.3c-0.3,0-0.7,0.1-1,0.2c-0.4,0.1-0.7,0.2-0.9,0.3l0.3-1.4c0.8-0.3,1.7-0.6,2.4-0.9
			c0.8-0.2,1.5-0.4,2.2-0.4c1.2,0,2.2,0.3,2.9,0.9c0.7,0.6,1,1.4,1,2.3c0,0.2,0,0.5-0.1,1s-0.1,1-0.3,1.4l-1.3,4.5
			c-0.1,0.4-0.2,0.8-0.3,1.3s-0.1,0.8-0.1,1.1c0,0.6,0.1,1,0.4,1.2s0.7,0.3,1.4,0.3c0.3,0,0.7-0.1,1.1-0.2S163.6,22,163.8,22z
			 M164.1,2.9c0,0.8-0.3,1.5-0.9,2c-0.6,0.6-1.3,0.8-2.2,0.8s-1.6-0.3-2.2-0.8c-0.6-0.6-0.9-1.2-0.9-2c0-0.8,0.3-1.5,0.9-2
			c0.6-0.6,1.3-0.8,2.2-0.8s1.6,0.3,2.2,0.8C163.8,1.4,164.1,2.1,164.1,2.9z"/>
	</g>
	<g>
		<path class="st0" d="M78.8,38.2l-3.2-7.6h1.6l2.6,6.4l6-6.4h1.8l-7.5,7.9l-1.3,4.9h-1.5L78.8,38.2z"/>
		<path class="st0" d="M95,30.5h3.1c2.1,0,3.9,0.6,5,1.7c0.9,0.9,1.4,2.1,1.4,3.7c0,2-0.7,3.7-2,5c-1.5,1.5-3.8,2.4-6.6,2.4h-4.3
			L95,30.5z M96.1,42c2.1,0,4-0.7,5.3-2c1-1,1.6-2.4,1.6-4c0-1.2-0.4-2.2-1.1-2.8c-0.8-0.8-2.2-1.3-3.9-1.3h-1.9L93.4,42H96.1z"/>
		<path class="st0" d="M109.3,30.5h1.4l-3.4,12.8h-1.4L109.3,30.5z"/>
		<path class="st0" d="M110.7,41.1l1.1-0.9c1.1,1.3,2.3,2,4.2,2c1.8,0,3.2-1,3.2-2.4c0-1-0.7-1.6-2.6-2.3c-2.4-0.9-3.5-1.8-3.5-3.4
			c0-2.1,2-3.7,4.7-3.7c2,0,3.6,0.8,4.5,1.9l-1.1,0.9c-0.9-1-2.1-1.6-3.6-1.6c-1.9,0-3.1,1.1-3.1,2.2c0,1,0.8,1.6,2.8,2.4
			c2.2,0.8,3.3,1.7,3.3,3.4c0,2.2-2.1,3.9-4.8,3.9C113.5,43.5,111.8,42.6,110.7,41.1z"/>
		<path class="st0" d="M126.1,30.5h9.2l-0.4,1.3h-7.7l-1.2,4.4h6.9l-0.4,1.3h-6.9l-1.2,4.5h7.8l-0.3,1.3h-9.2L126.1,30.5z"/>
		<path class="st0" d="M138.7,30.5h1.3l5.2,10.4l2.8-10.4h1.4L146,43.3h-1.2l-5.3-10.6l-2.8,10.6h-1.4L138.7,30.5z M141.5,29.4
			c0.6-1.3,1.2-1.8,2-1.8c0.8,0,1.7,0.7,2.3,0.7c0.5,0,0.7-0.3,1.1-0.9l0.9,0.3c-0.6,1.3-1.2,1.8-2,1.8c-0.8,0-1.7-0.7-2.3-0.7
			c-0.5,0-0.7,0.3-1.1,0.9L141.5,29.4z"/>
		<path class="st0" d="M150.7,38c0-3.9,3.2-7.7,7.5-7.7c3.3,0,5.6,2.4,5.6,5.5c0,4-3.2,7.7-7.5,7.7C153,43.6,150.7,41.1,150.7,38z
			 M162.3,35.9c0-2.4-1.6-4.3-4.2-4.3c-3.3,0-5.8,3.1-5.8,6.3c0,2.4,1.6,4.3,4.2,4.3C159.8,42.2,162.3,39.1,162.3,35.9z"/>
	</g>
</g>
</svg>
