<?xml version="1.0" encoding="utf-8"?>
<!-- Generator: Adobe Illustrator 21.1.0, SVG Export Plug-In . SVG Version: 6.00 Build 0)  -->
<svg version="1.1" id="Layer_1" xmlns="http://www.w3.org/2000/svg" xmlns:xlink="http://www.w3.org/1999/xlink" x="0px" y="0px"
	 viewBox="0 0 675 179" style="enable-background:new 0 0 675 179;" xml:space="preserve">
<style type="text/css">
	.st0{fill:#ED1C24;}
</style>
<g>
	<g>
		<path class="st0" d="M73.7,114.5v-20h14v-6.3h-14V62c0-2.3,0.6-4.2,1.8-5.6c1.2-1.4,3.1-2.1,5.7-2.1v-0.8H59.1v0.8
			c4.9,0,7.4,2.6,7.4,7.7v52.5c0,2.4-0.6,4.3-1.9,5.6c-1.3,1.3-3.1,2-5.5,2v0.8h22.1v-0.8c-2.3,0-4.1-0.7-5.5-2
			C74.3,118.8,73.7,116.9,73.7,114.5z"/>
	</g>
	<g>
		<path class="st0" d="M96.2,125.3V86.4c5-1.5,8.7-6.2,8.7-11.8c0-1.6-0.3-3.1-0.8-4.4c0.5-1.4,0.8-2.9,0.8-4.4
			c0-6.8-5.5-12.3-12.3-12.3c-6.8,0-12.3,5.5-12.3,12.3c0,1.6,0.3,3.1,0.8,4.4c-0.5,1.4-0.8,2.9-0.8,4.4c0,5.6,3.7,10.3,8.8,11.8v39
			c0,2.5-0.7,4.4-2,5.6c-1.3,1.3-3.2,1.9-5.5,1.9v0.8h22.1v-0.8C98.7,132.9,96.2,130.4,96.2,125.3z M92.6,56.9c4.9,0,8.9,4,8.9,8.9
			c0,0.1,0,0.3,0,0.4c-2.2-2.4-5.4-3.8-8.9-3.8c-3.5,0-6.7,1.5-8.9,3.8c0-0.1,0-0.3,0-0.4C83.7,60.8,87.7,56.9,92.6,56.9z
			 M100.3,70.2c-1.5,2.7-4.4,4.5-7.7,4.5c-3.3,0-6.2-1.8-7.7-4.5c1.5-2.7,4.4-4.5,7.7-4.5C95.9,65.7,98.8,67.5,100.3,70.2z
			 M83.7,74.6c0-0.1,0-0.3,0-0.4c2.2,2.4,5.4,3.8,8.9,3.8c3.5,0,6.7-1.5,8.9-3.8c0,0.1,0,0.3,0,0.4c0,4.9-4,8.9-8.9,8.9
			C87.7,83.6,83.7,79.6,83.7,74.6z"/>
	</g>
	<g>
		<path class="st0" d="M120.5,56.4c1.2-1.4,3.1-2.1,5.7-2.1v-0.8H104v0.8c2.6,0,4.5,0.7,5.7,2.2c1.2,1.4,1.8,3.3,1.8,5.6v26.2h-14
			v6.3h14v20.1c0,2.5-0.7,4.4-2,5.6c-1.3,1.3-3.2,1.9-5.5,1.9v0.8h22.1v-0.8c-5,0-7.4-2.5-7.4-7.6V62
			C118.7,59.7,119.3,57.9,120.5,56.4z"/>
	</g>
</g>
<g>
	<g>
		<path class="st0" d="M194.9,84.9V50.1h5.5v14.2h12.7V50.1h5.5v34.8h-5.5V69h-12.7v16H194.9z"/>
	</g>
	<g>
		<path class="st0" d="M228.9,74.6V50.1h5.5v23.2c0,3.9,1.2,6.3,3.7,7.2c0.6,0.2,1.4,0.4,2.2,0.4c0.8,0,1.5-0.1,2.2-0.3
			c0.6-0.2,1.2-0.5,1.6-0.8c0.4-0.3,0.7-0.7,1-1.2s0.5-1,0.6-1.4c0.1-0.4,0.3-0.9,0.3-1.5c0.1-0.7,0.1-1.5,0.1-2.4V50.1h5.6v24.5
			c0,3.5-1.2,6.3-3.5,8.3c-1.9,1.7-4.6,2.5-8,2.5c-5.2,0-8.6-2-10.3-5.9C229.3,78,228.9,76.3,228.9,74.6z"/>
	</g>
	<g>
		<path class="st0" d="M280.5,61.1c-1-4.7-3.1-7.1-6.2-7.1c-3.4,0-5.7,1.9-7.1,5.7c-0.7,2.1-1.1,4.6-1.1,7.5
			c0,6.9,1.5,11.2,4.4,12.9c0.9,0.5,1.8,0.7,2.7,0.7c1,0,1.8-0.1,2.4-0.3c0.7-0.2,1.2-0.4,1.7-0.7c0.5-0.3,0.8-0.7,1.2-1.2
			c0.3-0.5,0.6-0.9,0.8-1.4c0.2-0.5,0.3-1,0.4-1.7c0.2-1,0.3-2.2,0.3-3.6h-6.7v-4.6h12.1v17.6h-4.5v-2.8c-1,1.2-2.1,2-3.2,2.5
			c-1.3,0.5-2.7,0.8-4.3,0.8s-3.1-0.3-4.5-1c-1.4-0.7-2.5-1.6-3.5-2.7c-1-1.2-1.9-2.5-2.6-4.1c-1.5-3.1-2.2-6.6-2.2-10.4
			c0-3.7,0.7-7.1,2.1-10c1.5-3.3,3.7-5.5,6.4-6.8c1.5-0.7,2.9-1,4.3-1c1.4,0,2.5,0.1,3.3,0.3c0.8,0.2,1.7,0.5,2.5,1
			c0.8,0.5,1.6,1.1,2.3,1.9c1.5,1.7,2.8,4.2,3.7,7.6L280.5,61.1z"/>
	</g>
	<g>
		<path class="st0" d="M294.5,71.1c-0.2-1.2-0.2-2.3-0.2-3.5c0-1.1,0.1-2.3,0.2-3.5c0.1-1.2,0.4-2.3,0.7-3.5s0.7-2.3,1.2-3.4
			c0.5-1.1,1.1-2.1,1.8-3c0.7-1,1.5-1.8,2.4-2.5c1.9-1.5,4.3-2.2,7.1-2.2c3.8,0,6.9,1.6,9.2,4.7c2.5,3.4,3.7,7.9,3.7,13.4
			c0,5.6-1.2,10.1-3.6,13.3c-2.2,3-5.3,4.5-9.3,4.5c-3.8,0-6.9-1.5-9.3-4.6C296.3,78.4,295,75.1,294.5,71.1z M300.2,62.7
			c-0.2,0.9-0.3,1.8-0.3,2.6c-0.1,0.8-0.1,1.6-0.1,2.4c0,0.8,0,1.7,0.1,2.5c0.1,0.8,0.2,1.7,0.3,2.6c0.2,0.9,0.4,1.7,0.6,2.5
			c0.2,0.8,0.6,1.5,1,2.2c0.4,0.7,0.9,1.3,1.4,1.8c1.2,1.1,2.7,1.7,4.5,1.7c5,0,7.5-4.4,7.5-13.3c0-7.2-1.7-11.6-5.1-13
			c-0.7-0.3-1.5-0.5-2.4-0.5c-0.9,0-1.7,0.2-2.5,0.5c-0.8,0.3-1.4,0.7-1.9,1.3c-0.5,0.5-1,1.2-1.4,1.9c-0.4,0.7-0.8,1.5-1,2.3
			C300.5,60.9,300.3,61.7,300.2,62.7z"/>
	</g>
	<g>
		<path class="st0" d="M342.2,84.9l9.9-34.8h6l9.9,34.8h-5.3l-2.9-10.1h-9.1l-2.9,10.1H342.2z M352,70.2h6.5L355.3,59L352,70.2z"/>
	</g>
	<g>
		<path class="st0" d="M375.6,84.9V50.1h5.5v29.5h14.4v5.3H375.6z"/>
	</g>
	<g>
		<path class="st0" d="M403.7,84.9V50.1h19.9v4.6h-14.4v9.6h10V69h-10v11h15.3v4.9H403.7z"/>
	</g>
	<g>
		<path class="st0" d="M430.4,78.2l3.2-1.7c0.6,1.8,1.7,3.1,3.4,3.9c0.7,0.3,1.3,0.5,1.9,0.5s1,0,1.4-0.1c0.3-0.1,0.6-0.2,0.8-0.3
			c0.2-0.1,0.4-0.3,0.6-0.6s0.3-0.5,0.5-0.7c0.1-0.2,0.2-0.5,0.3-0.9c0.1-0.4,0.1-0.7,0.2-1c0-0.3,0.1-0.7,0.1-1.1
			c0-0.6,0-1.4,0-2.3V50.1h5.5v25.1c0,5.6-2.1,8.9-6.3,9.9c-0.9,0.2-1.9,0.3-3,0.3c-1,0-2-0.1-2.8-0.4c-0.8-0.3-1.6-0.6-2.1-1
			c-0.6-0.4-1.1-0.8-1.5-1.4c-0.5-0.6-0.8-1-1.1-1.5c-0.2-0.4-0.5-0.9-0.7-1.5C430.6,79.2,430.5,78.7,430.4,78.2z"/>
	</g>
	<g>
		<path class="st0" d="M455.5,84.9l9.9-34.8h6l9.9,34.8h-5.3l-2.9-10.1h-9.1l-2.9,10.1H455.5z M465.4,70.2h6.5L468.7,59L465.4,70.2z
			"/>
	</g>
	<g>
		<path class="st0" d="M507.2,71.5V50.1h5.5v34.8h-4.4l-14.1-26.7v26.7h-5.5V50.1h7.1L507.2,71.5z"/>
	</g>
	<g>
		<path class="st0" d="M522.9,84.9V50.1h8.2c8.4,0,13.5,3.4,15.2,10.1c0.6,2.2,0.8,4.4,0.8,6.8s-0.2,4.4-0.5,6
			c-0.3,1.6-0.9,3.2-1.7,4.7c-0.8,1.5-1.8,2.7-3,3.8c-2.6,2.2-6.2,3.4-10.9,3.4H522.9z M528.4,80.3h3.3c3.2,0,5.7-1.2,7.4-3.5
			c1.7-2.3,2.5-5.3,2.5-9.1c0-7.1-2.3-11.4-6.9-12.6c-0.9-0.3-2-0.4-3.1-0.4h-3.3V80.3z"/>
	</g>
	<g>
		<path class="st0" d="M555.8,84.9V50.1h11.7c5.4,0,8.8,1.9,10.2,5.8c0.4,1.1,0.6,2.3,0.6,3.5s-0.1,2.3-0.4,3.3
			c-0.3,1-0.7,1.9-1.2,2.7c-1.1,1.8-2.8,3-5.1,3.5l6.4,16.1h-5.6l-6-15.1h-5.1v15.1H555.8z M561.3,65.2h5.8c1.6,0,2.9-0.4,4-1.3
			c1.1-0.9,1.7-2.4,1.7-4.3c0-3.2-2.6-4.8-7.7-4.8h-3.8V65.2z"/>
	</g>
	<g>
		<path class="st0" d="M585.1,71.1c-0.2-1.2-0.2-2.3-0.2-3.5c0-1.1,0.1-2.3,0.2-3.5c0.1-1.2,0.4-2.3,0.7-3.5
			c0.3-1.2,0.7-2.3,1.2-3.4c0.5-1.1,1.1-2.1,1.8-3c0.7-1,1.5-1.8,2.4-2.5c1.9-1.5,4.3-2.2,7.1-2.2c3.8,0,6.9,1.6,9.2,4.7
			c2.5,3.4,3.7,7.9,3.7,13.4c0,5.6-1.2,10.1-3.6,13.3c-2.2,3-5.3,4.5-9.3,4.5c-3.8,0-6.9-1.5-9.3-4.6
			C587,78.4,585.7,75.1,585.1,71.1z M590.8,62.7c-0.2,0.9-0.3,1.8-0.3,2.6s-0.1,1.6-0.1,2.4c0,0.8,0,1.7,0.1,2.5
			c0.1,0.8,0.2,1.7,0.3,2.6c0.2,0.9,0.4,1.7,0.6,2.5c0.2,0.8,0.6,1.5,1,2.2c0.4,0.7,0.9,1.3,1.4,1.8c1.2,1.1,2.7,1.7,4.5,1.7
			c5,0,7.5-4.4,7.5-13.3c0-7.2-1.7-11.6-5.1-13c-0.7-0.3-1.5-0.5-2.4-0.5c-0.9,0-1.7,0.2-2.5,0.5c-0.8,0.3-1.4,0.7-1.9,1.3
			c-0.5,0.5-1,1.2-1.4,1.9c-0.4,0.7-0.8,1.5-1,2.3C591.2,60.9,591,61.7,590.8,62.7z"/>
	</g>
	<g>
		<path class="st0" d="M195.7,120.1c-0.7-1.6-1.1-3.2-1.4-4.9c-0.3-1.7-0.4-3.3-0.4-4.9c0-1.6,0.1-3.1,0.3-4.5
			c0.2-1.4,0.5-2.7,1-4.1s1-2.5,1.7-3.6c0.7-1.1,1.5-2.1,2.4-2.9c2-1.8,4.4-2.7,7.3-2.7c2.2,0,4.2,0.7,6.1,2c2.2,1.5,3.8,4.2,4.8,8
			l-3.3,0.8c0-0.1,0-0.3-0.1-0.4c0-0.2-0.1-0.6-0.3-1.1c-0.1-0.6-0.3-1.1-0.5-1.6c-0.2-0.5-0.5-1-0.9-1.7c-0.4-0.6-0.9-1.1-1.4-1.6
			c-1.2-1-2.6-1.6-4.4-1.6c-1.8,0-3.3,0.4-4.5,1.2c-1.3,0.8-2.2,2-2.9,3.4c-1.3,2.8-2,6.1-2,10.1c0,4.7,0.6,8.2,1.8,10.6
			c1.6,3.1,4.1,4.6,7.6,4.6c4.3,0,6.8-2.5,7.5-7.4c0.1-1.1,0.2-2.3,0.2-3.7h-7.7v-2.8h11.1v16.4H215v-4.4c-1.7,2.4-3.6,3.9-5.5,4.4
			c-0.9,0.2-2,0.4-3.4,0.4c-1.4,0-2.8-0.4-4.3-1.1c-1.5-0.7-2.7-1.6-3.6-2.8C197.2,123,196.4,121.6,195.7,120.1z"/>
	</g>
	<g>
		<path class="st0" d="M226,127.7l9.9-34.8h5l9.9,34.8h-3.5l-3-11h-11.7l-3.1,11H226z M233.3,113.8h10.1l-5.1-18.1L233.3,113.8z"/>
	</g>
	<g>
		<path class="st0" d="M256.6,127.7l10-17.8l-9.6-17h3.5l8.2,14.6l8-14.6h3.5l-9.8,17.6l9.8,17.2h-3.6l-8.2-14.6l-8.2,14.6H256.6z"
			/>
	</g>
	<g>
		<path class="st0" d="M288.7,127.7V92.9h3.4v34.8H288.7z"/>
	</g>
	<g>
		<path class="st0" d="M303.8,120.3c-0.7-1.5-1.2-3.1-1.5-4.8c-0.3-1.7-0.5-3.4-0.5-5.1c0-1.8,0.1-3.5,0.4-5.1
			c0.3-1.7,0.8-3.3,1.4-4.8c0.7-1.6,1.5-2.9,2.4-4.1c1-1.2,2.2-2.1,3.7-2.8c1.5-0.7,3.1-1,4.9-1c1.8,0,3.4,0.4,4.8,1.1
			c1.4,0.7,2.6,1.7,3.5,2.8c0.9,1.2,1.7,2.5,2.4,4.1c1.2,2.9,1.8,6.2,1.8,9.9c0,6.7-1.7,11.7-5.2,15c-1.9,1.8-4.3,2.7-7.2,2.7
			c-1.7,0-3.3-0.3-4.7-1c-1.4-0.7-2.7-1.6-3.6-2.7C305.3,123.1,304.5,121.8,303.8,120.3z M306.5,101.7c-0.5,1.3-0.8,2.7-1,4.1
			c-0.2,1.4-0.3,3.1-0.3,4.9c0,1.8,0.2,3.6,0.5,5.3c0.4,1.7,0.9,3.3,1.6,4.7c0.7,1.4,1.7,2.5,3,3.3c1.2,0.8,2.6,1.2,4.1,1.2
			c1.5,0,2.8-0.3,3.9-0.9c1.1-0.6,1.9-1.4,2.6-2.4c0.7-1,1.2-2.1,1.6-3.4c0.8-2.4,1.1-5.1,1.1-8.1c0-5-0.9-8.9-2.8-11.7
			c-0.7-1-1.5-1.8-2.6-2.4c-1.1-0.6-2.3-0.9-3.7-0.9s-2.6,0.3-3.7,0.8c-1.1,0.6-2,1.3-2.7,2.2C307.5,99.3,306.9,100.4,306.5,101.7z"
			/>
	</g>
	<g>
		<path class="st0" d="M336.7,127.7V92.9h3.4v31.5h15.4v3.3H336.7z"/>
	</g>
	<g>
		<path class="st0" d="M361.4,127.7l9.9-34.8h5l9.9,34.8h-3.5l-3-11H368l-3.1,11H361.4z M368.8,113.8h10.1l-5.1-18.1L368.8,113.8z"
			/>
	</g>
	<g>
		<path class="st0" d="M405.3,117.5c-0.3-1.2-0.5-2.4-0.6-3.6c-0.1-1.2-0.2-2.5-0.2-4c0-1.5,0.1-3.1,0.4-4.7
			c0.3-1.6,0.7-3.2,1.3-4.8c0.6-1.6,1.4-2.9,2.3-4.1c0.9-1.1,2.1-2.1,3.5-2.8c1.4-0.7,2.9-1,4.3-1s2.7,0.2,3.8,0.6
			c1,0.4,1.9,0.9,2.6,1.5c0.7,0.6,1.3,1.3,1.9,2c0.6,0.7,1,1.5,1.4,2.2c0.7,1.5,1.1,2.7,1.3,3.4l0.1,0.6v0l-3.5,0.9
			c-0.2-1.7-0.6-3-0.9-3.8c-0.4-0.8-0.7-1.5-1.1-2c-0.4-0.5-0.8-0.9-1.3-1.3c-1.1-0.8-2.4-1.2-3.9-1.2c-6,0-9,5-9,14.9
			c0,4.3,0.6,7.7,1.9,10.4c1.4,3,3.8,4.5,7.1,4.5c2.7,0,4.8-1.1,6.3-3.2c1-1.5,1.6-3.1,1.6-5l3.4,0.5c-0.1,0.2-0.2,0.6-0.4,1.2
			s-0.4,1.2-0.6,1.6c-0.2,0.4-0.4,1-0.7,1.7c-0.3,0.7-0.7,1.3-1,1.8c-0.3,0.5-0.8,1-1.4,1.6c-0.6,0.6-1.2,1-1.8,1.4
			c-1.5,0.8-3.1,1.2-4.8,1.2c-1.6,0-3-0.2-4.1-0.6c-1.1-0.4-2.1-0.9-2.9-1.5c-0.8-0.6-1.6-1.4-2.2-2.3c-0.7-0.9-1.2-1.9-1.7-2.9
			C405.9,119.8,405.6,118.6,405.3,117.5z"/>
	</g>
	<g>
		<path class="st0" d="M437.4,117.2V92.9h3.4v24.3c0,2.1,0.5,3.8,1.5,5.3c1.3,1.8,3.3,2.7,6,2.7c4,0,6.4-1.8,7.2-5.5
			c0.2-0.8,0.3-1.7,0.3-2.5V92.9h3.5v24.3c0,2.5-0.7,4.8-2,6.7c-1.8,2.7-4.8,4.1-8.9,4.1c-4.9,0-8.2-1.9-9.9-5.8
			C437.7,120.6,437.4,118.9,437.4,117.2z"/>
	</g>
	<g>
		<path class="st0" d="M469.9,127.7V92.9h18.9v2.8h-15.5V108h11.1v2.8h-11.1v13.8h16.3v3.1H469.9z"/>
	</g>
	<g>
		<path class="st0" d="M496.5,92.9h3.5l8.6,28.8l8.6-28.8h3.5l-10.3,34.8h-3.5L496.5,92.9z"/>
	</g>
	<g>
		<path class="st0" d="M526.5,127.7l9.9-34.8h5l9.9,34.8h-3.5l-3-11h-11.7l-3.1,11H526.5z M533.9,113.8H544l-5.1-18.1L533.9,113.8z"
			/>
	</g>
	<g>
		<path class="st0" d="M557.5,119.2l3.1-1.1c0,0,0,0.1,0.1,0.4c0.1,0.3,0.2,0.6,0.3,1c0.1,0.4,0.3,0.9,0.6,1.4c0.2,0.5,0.6,1,1,1.5
			c0.5,0.5,1,1,1.6,1.4c1.3,0.9,3.1,1.4,5.2,1.4c2.2,0,3.8-0.6,4.8-1.8c1.1-1.2,1.6-2.6,1.6-4.4c0-1.7-0.3-3.1-1-4.1
			c-0.7-1-1.8-1.8-3.5-2.5c-0.5-0.2-1.1-0.4-1.9-0.7l-2.2-0.8c-3.8-1.3-6.3-2.9-7.6-4.8c-0.9-1.4-1.4-3-1.4-4.8c0-2.2,0.9-4.2,2.6-6
			c0.8-0.9,1.8-1.6,3.1-2.1c1.3-0.5,2.6-0.8,4-0.8s2.6,0.2,3.7,0.6c1.1,0.4,1.9,0.8,2.6,1.4s1.2,1.2,1.8,1.9
			c0.5,0.7,0.9,1.4,1.1,1.9l0.7,1.7c0.2,0.5,0.3,0.8,0.4,0.9l-3,1.1c0-0.1-0.1-0.3-0.2-0.7c-0.1-0.4-0.2-0.7-0.3-1
			c-0.1-0.3-0.2-0.6-0.4-1.1c-0.2-0.5-0.4-0.8-0.6-1.2c-0.2-0.3-0.5-0.7-0.9-1c-0.4-0.4-0.7-0.7-1.2-0.9c-1-0.6-2.2-0.8-3.4-0.8
			c-1.9,0-3.4,0.6-4.6,1.7c-1.2,1.1-1.8,2.6-1.8,4.4c0,2,0.5,3.4,1.6,4.2c0.6,0.4,1,0.8,1.4,1c0.4,0.2,0.8,0.4,1.4,0.6
			c0.5,0.2,0.9,0.3,1.2,0.4c0.2,0.1,0.7,0.3,1.4,0.5l1.9,0.6c3.6,1.1,6,2.7,7.3,4.8c0.9,1.5,1.4,3.2,1.4,5.3c0,1.5-0.5,3.1-1.4,4.7
			c-1.2,2.1-3,3.5-5.4,4.1c-0.9,0.2-2,0.4-3.2,0.4c-1.2,0-2.4-0.2-3.5-0.5c-1.2-0.3-2.1-0.7-2.9-1.3c-0.8-0.5-1.5-1.1-2.1-1.7
			c-0.6-0.6-1.1-1.3-1.5-1.9c-0.7-1.1-1.2-2.1-1.5-3L557.5,119.2z"/>
	</g>
</g>
</svg>
