<?xml version="1.0" encoding="utf-8"?>
<!-- Generator: Adobe Illustrator 19.1.0, SVG Export Plug-In . SVG Version: 6.00 Build 0)  -->
<svg version="1.1" id="Layer_1" xmlns="http://www.w3.org/2000/svg" xmlns:xlink="http://www.w3.org/1999/xlink" x="0px" y="0px"
	 viewBox="0 0 533 400" style="enable-background:new 0 0 533 400;" xml:space="preserve">
<style type="text/css">
	.st0{fill:#FFFFFF;}
</style>
<g>
	<path class="st0" d="M124.8,151c6.1-4.1,12.1-8.5,17.9-13c1.4-1.1,2.9-2.3,4.3-3.5c1.4-1.2,2.8-2.4,4.2-3.5l2.1-1.8
		c0.7-0.6,1.4-1.2,2-1.8c0.7-0.6,1.3-1.2,2-1.9l1.9-1.9l0,0l0,0c1.1-1,2.8-1,3.8,0.1c0.9,0.9,1,2.3,0.3,3.3c-2.2,3.5-4.5,7-6.7,10.5
		c-2.3,3.5-4.5,6.9-6.8,10.4c-2.3,3.4-4.6,6.9-6.9,10.3c-2.3,3.4-4.6,6.8-7,10.2c-2.4,3.4-4.7,6.8-7.1,10.2l-7.2,10.1l-7.3,10
		c-2.4,3.3-5,6.6-7.4,9.9l-3.7,5l-3.8,4.9c-2.6,3.3-5,6.6-7.7,9.8l-7.8,9.6c-2.6,3.2-5.4,6.3-8,9.5c-1.4,1.6-2.7,3.2-4.1,4.7
		l-4.2,4.6c-2.8,3.1-5.5,6.2-8.5,9.1l-4.4,4.4l-2.2,2.2l-1.1,1.1l-1.1,1.1l-9.2,8.5c-0.7,0.7-1.9,0.6-2.5-0.1
		c-0.6-0.6-0.6-1.6-0.1-2.3l0,0l0,0c6.5-9.2,13.2-18.3,20-27.3c3.4-4.5,6.9-9,10.3-13.4c3.5-4.4,7-8.9,10.5-13.3
		c7.1-8.8,14.3-17.4,21.8-25.9c7.5-8.5,15.1-16.8,23-24.9c7.9-8.1,16.2-15.9,24.9-23.2c2.2-1.8,4.4-3.6,6.7-5.3l3.5-2.5l1.7-1.3
		l1.8-1.2l3.6-2.4l3.7-2.2l1.9-1.1l1.9-1c1.3-0.7,2.6-1.3,3.9-2l7.7-3.5l1.9-0.9l2-0.8l4-1.7c2.6-1.1,5.3-2.1,8-3.1
		c2.7-1.1,5.4-1.9,8.2-2.8l2.1-0.7l2.1-0.6l4.2-1.1c1.4-0.3,2.9-0.6,4.3-0.9c0.7-0.1,1.4-0.3,2.2-0.4l2.2-0.3
		c1.5-0.2,2.9-0.5,4.5-0.5c1.5-0.1,3-0.2,4.6-0.2l2.3,0l2.4,0.2c0.4,0,0.8,0.1,1.2,0.1l1.2,0.2c0.8,0.1,1.6,0.3,2.4,0.5l1.2,0.3
		c0.4,0.1,0.9,0.3,1.3,0.5c0.4,0.2,0.8,0.3,1.3,0.6l0.7,0.3c0.2,0.1,0.5,0.3,0.8,0.4l0.2,0.1c0.1,0,0.1,0.1,0.3,0.2
		c0.2,0.2,0.4,0.3,0.6,0.5l0.3,0.3l0.2,0.2c0.1,0.1,0.2,0.2,0.3,0.4c0.4,0.5,0.7,0.9,1.1,1.4c0.6,1,1,2,1.4,3c0.7,2,0.8,4.1,0.7,6
		c-0.1,1.9-0.5,3.7-1,5.3c-1.1,3.3-2.7,6.1-4.4,8.7c-1.8,2.6-3.7,4.9-5.7,7.1c-4,4.4-8.5,8.2-13,11.8c-1.1,0.9-2.3,1.8-3.4,2.6
		c-1.2,0.9-2.3,1.8-3.5,2.6l-1.7,1.3l-0.9,0.6l-0.4,0.3l-0.5,0.3l-3.5,2.4c-2.3,1.6-4.6,3.2-7.1,4.7l-3.7,2.3
		c-1.2,0.8-2.4,1.5-3.7,2.2l-7.5,4.2l-7.6,4c-10.2,5.1-20.7,9.6-31.3,13.5c-10.7,3.8-21.6,7.2-32.7,9.6l-1,0.2l-1.1,0.2l-2.1,0.4
		l-4.2,0.8l-2.1,0.4l-0.5,0.1l-0.6,0.1l-1.1,0.2c-1.4,0.2-2.8,0.4-4.2,0.6c-5.7,0.7-11.4,1-17.1,1.1c-5.7,0-11.4-0.3-17.1-1.2
		c-5.7-0.9-11.3-2.4-16.5-4.8c-2.6-1.2-5.2-2.6-7.5-4.3c-2.3-1.6-4.7-3.5-6.5-5.9c-0.9-1.2-1.7-2.5-2.1-4c-0.5-1.5-0.5-3.1-0.3-4.6
		c0.3-1.6,1.1-3,2.1-4.1c1-1.1,2.3-2,3.6-2.7c0.4-0.2,0.9,0,1.1,0.4c0.2,0.4,0,0.9-0.3,1.1c-1.2,0.6-2.2,1.4-3.1,2.4
		c-0.8,1-1.4,2.1-1.6,3.3c-0.2,1.3-0.1,2.5,0.3,3.7c0.4,1.2,1.1,2.3,1.9,3.3c1.7,2,3.9,3.7,6.2,5.2c2.3,1.5,4.7,2.8,7.3,3.8
		c10.2,4.2,21.5,5.1,32.6,4.8c5.5-0.2,11.1-0.7,16.6-1.5c1.4-0.2,2.8-0.4,4.1-0.7l1-0.2l0.4-0.1l0.5-0.1l2.1-0.4l4.1-0.9l2.1-0.4
		l1-0.2l1-0.3c10.8-2.7,21.4-6.3,31.8-10.4c10.4-4.1,20.5-8.8,30.3-14.1l7.3-4.1l7.1-4.3c1.2-0.7,2.3-1.5,3.5-2.2l3.4-2.3
		c2.3-1.5,4.6-3.2,6.8-4.8l3.4-2.5l0.2-0.2l0.1-0.1c0.1,0-0.1,0,0,0l0.4-0.3l0.8-0.6l1.6-1.3c2.2-1.7,4.3-3.5,6.3-5.3
		c4.1-3.6,8.1-7.4,11.5-11.5c1.7-2,3.3-4.1,4.7-6.2c1.3-2.1,2.5-4.3,3.1-6.4c0.6-2.1,0.8-4,0.3-5.3c-0.1-0.3-0.2-0.6-0.4-0.9
		c-0.1-0.1-0.1-0.2-0.2-0.3c0,0,0,0,0,0l0,0l0.1,0.1c0,0,0.1,0.1,0.2,0.1c0.1,0,0.1,0,0,0l0,0c-0.1,0-0.1-0.1-0.2-0.1l-0.3-0.1
		c-0.2-0.1-0.4-0.2-0.6-0.3c-0.2-0.1-0.5-0.2-0.7-0.3l-0.8-0.2c-0.5-0.2-1.1-0.3-1.7-0.4l-0.9-0.2c-0.3-0.1-0.6-0.1-0.9-0.1
		l-1.8-0.2l-1.9-0.1c-1.3-0.1-2.6,0-3.9,0c-1.3,0-2.6,0.1-3.9,0.2l-2,0.2c-0.7,0.1-1.3,0.2-2,0.3c-1.3,0.2-2.7,0.4-4,0.6l-4,0.8
		l-2,0.4l-2,0.5c-2.7,0.7-5.3,1.3-8,2.2c-2.6,0.8-5.3,1.5-7.9,2.5l-3.9,1.4l-2,0.7c-0.7,0.2-1.3,0.5-2,0.8l-7.8,3.2
		c-1.2,0.5-2.4,1.2-3.6,1.7l-1.8,0.9l-1.8,1l-3.6,2l-3.5,2.2l-1.7,1.1l-1.7,1.2l-3.4,2.4c-2.2,1.7-4.4,3.3-6.6,5.1
		c-8.7,7-17,14.5-25,22.4c-8,7.8-15.7,16-23.2,24.4c-7.5,8.4-14.8,16.9-22,25.6c-7.2,8.7-14.2,17.5-21,26.4
		c-6.8,8.9-13.6,18-20,27.1l0,0l-2.7-2.4l9-8.4l1.1-1.1l1.1-1.1l2.1-2.2l4.3-4.4c2.9-2.9,5.6-6,8.3-9.1l4.1-4.6
		c1.4-1.5,2.7-3.1,4-4.7c2.6-3.2,5.3-6.3,7.9-9.5l7.7-9.7c2.6-3.2,5-6.5,7.5-9.8l3.8-4.9l3.7-5c2.4-3.3,4.9-6.6,7.3-10l7.2-10.1
		l7.1-10.1c2.4-3.4,4.7-6.8,7-10.2c2.3-3.4,4.6-6.8,6.9-10.3c2.3-3.4,4.6-6.9,6.8-10.3c2.3-3.4,4.5-6.9,6.7-10.4
		c2.2-3.5,4.4-7,6.6-10.4l4.1,3.4l0,0l-2.2,1.8c-0.7,0.6-1.5,1.2-2.2,1.8c-0.7,0.6-1.5,1.2-2.2,1.7l-2.3,1.7
		c-1.5,1.1-3.1,2.2-4.6,3.2c-1.5,1.1-3.1,2.1-4.7,3.1c-6.3,4.1-12.6,7.9-19.2,11.5c-0.4,0.2-0.8,0.1-1-0.3
		C124.4,151.7,124.5,151.3,124.8,151L124.8,151z"/>
	<g>
		<path class="st0" d="M264.9,283.9c-0.5,0-1-0.2-1.4-0.5c-0.8-0.7-1.1-1.9-0.5-2.8c6.6-11.8,25-35.1,44.8-58.8
			c-5.3,4.1-10,7.2-12.5,7.4c-3.4,0.3-5.9-0.5-7.5-2.4c-0.1-0.1-0.2-0.3-0.3-0.4c-4,3.9-9.6,8-14.2,7.3c-1.7-0.3-4.1-1.4-5.5-5
			c-1.4-3.5-0.5-6.9,1.6-10c-3.3,2.5-5.4,4.5-5.5,4.5c-0.1,0.1-0.2,0.2-0.4,0.3c-9.1,5.5-13.8,6.9-16.2,4.7
			c-1.7-1.6-1.2-4.2-0.2-6.1c0,0,0-0.1,0.1-0.1c2.1-3.5,4.2-6.9,6.4-10.2c-12,9.5-20.2,14.1-20.4,14.3c-5.5,2.9-12.5,5.7-15.1,2.5
			c-2.1-2.6-0.4-6.8,5.9-14.7l0.8-1c1.5-1.8,2.9-3.7,4.2-5.6c-0.3,0.1-0.5,0.2-0.8,0.3l-0.6,0.2c-1.7,0.7-3.7,1.5-5.8,1.9
			c-1,0.2-2.2,0.4-3.4,0.2c-0.5-0.1-1-0.2-1.5-0.4c-3,1.9-6.2,3.3-9.3,4.1c-1,0.2-3.1,0.7-5.3,0.5c-0.3,0.7-0.6,1.4-0.9,2
			c-3.5,7.4-10.9,15.8-21.1,17.2c-3.2,0.4-5.8,0-7.9-1.4c-2.6-1.7-4.3-5-4.3-8.6c-0.1-5.9,2.6-12.2,7.2-16.5
			c8.2-7.7,13.2-7.2,19.5-6.6c1,0.1,1.8,0.8,2,1.7c0.2-0.2,0.3-0.4,0.5-0.6c1.1-1.3,2.7-2,4.2-1.9c1,0,1.8,0.4,2.5,1
			c1.4,1.2,1.3,3.1,1.3,3.7c-0.1,1.9-0.5,3.9-1.1,5.7c0.8-0.1,1.7-0.2,2.5-0.4c2.4-0.6,5-1.7,7.4-3.2c-0.2-0.7-0.1-1.5,0.1-2.2
			c0.5-2,1.9-3.5,3.3-5l0.4-0.5c0.9-0.9,1.7-1.8,2.9-2.6c1.9-1.2,3.3-0.5,3.8-0.1c0.5,0.3,0.8,0.8,1.1,1.4c0.9,2.3,0,5-2.5,7.6
			c1-0.3,2-0.7,3-1.1l0.5-0.2c0.8-0.3,1.6-0.6,2.4-0.9l0.1,0c0.7-0.3,1.6-0.6,2.7-0.6c1.6-0.1,2.9,0.9,3.2,2.3
			c0.2,0.7,0,1.4-0.1,1.8c-0.3,1.1-0.8,2-1.3,2.7c-1.6,2.5-3.4,4.9-5.2,7.1l-0.8,1c-4.4,5.4-5.4,7.9-5.7,8.9
			c1.7-0.1,5.7-1.5,9.2-3.4c0.2-0.1,14-8,32-24.2c23.5-32.7,48-56.7,48.3-57c0.8-0.8,2.1-0.9,3-0.1c0.9,0.7,1.1,2,0.5,3
			c-15.5,24.8-33.3,43.7-48.3,57.2c-5.3,7.4-10.5,15.2-15.4,23.4c-0.1,0.1-0.1,0.3-0.2,0.4c1.2-0.2,4.1-1.2,10.1-4.9
			c2-1.8,18.5-16.4,32.7-17.3c1.1-0.1,2.1,0.7,2.3,1.8c0.2,1.1-0.3,2.2-1.4,2.6c-6.9,2.8-25.8,12.4-22.7,20.3c0.8,2,1.7,2.1,2,2.2
			c2.9,0.5,8.1-3.7,12.2-7.9c0-1.6,0.4-2.9,0.5-3.2c0-0.2,0.1-0.3,0.2-0.5c6.2-11,8.1-10.9,9.3-10.8c1,0.1,1.9,0.8,2.3,1.8
			c1.1,3-2.5,8.3-5.8,12.2c-0.4,0.4-1,1.2-1.8,2.1c0.1,0.4,0.2,0.7,0.5,0.9c0.7,0.9,2.4,0.9,3.6,0.8c2.8-0.3,15.4-9.9,31.8-25.3
			c22-25.9,41.5-47.8,43.2-49.8c0.7-0.8,2-1,2.9-0.4c0.9,0.6,1.3,1.8,0.9,2.8c-5.4,12.8-30.7,37.9-38.3,45.3
			c-0.7,0.7-2.6,2.5-5.1,4.9c-17,19.9-35.5,42.2-48.5,59.3c9.4-10.3,22.4-25.6,39.5-47.5c1-1.5,12.3-17.1,40.2-14.5l0.3,0
			c0.7,0.1,1.8,0.2,2.5,0.7c1.1-1.1,2.5-1.7,3.9-1.6c1,0,1.8,0.4,2.5,1c1.4,1.2,1.3,3.1,1.3,3.7c-0.1,1.9-0.5,3.9-1.1,5.7
			c0.8-0.1,1.7-0.2,2.5-0.4c1.7-0.4,3.6-1.1,5.4-2.1c1.2-1,9.4-7.7,20.5-19.5c2-2.8,4.2-5.9,6.8-9.3c11.6-15.3,23.9-29,24-29.2
			c0.8-0.9,2.1-1,3.1-0.3c0.9,0.7,1.1,2.1,0.5,3c-10.7,15.9-21.7,28.8-30.8,38.5c-8.8,12.6-14.9,23.8-13.4,28.6
			c0.2,0.7,0.6,1.4,2,1.7c0.1,0,10,2,25.7-16.4c0.8-0.9,2.2-1.1,3.1-0.3c1,0.7,1.1,2.1,0.4,3.1c-4.4,6.2-7.9,12.9-7.9,15.1
			c0.4,0,1.3-0.2,3-0.9c14.5-6.1,29.3-17.2,29.5-17.3c1-0.7,2.4-0.5,3.2,0.5c0.7,1,0.5,2.4-0.5,3.2c-0.6,0.5-15.5,11.5-30.4,17.9
			c-1.5,0.6-6,2.6-8.3-0.3c-1.2-1.5-1.1-4-0.1-6.9c-11.4,8.6-18.5,6.9-18.8,6.8c-2.6-0.7-4.5-2.3-5.2-4.8c-0.5-1.6-1.6-5.4,4-16.2
			c-4.7,4.4-7.6,6.6-7.7,6.7c-0.1,0.1-0.2,0.2-0.4,0.2c-2.2,1.2-4.4,2-6.6,2.6c-1,0.2-3.1,0.7-5.3,0.5c-0.3,0.7-0.6,1.4-0.9,2
			c-3.5,7.4-10.9,15.8-21.1,17.2c-3.2,0.4-5.8,0-7.9-1.4c-2.6-1.7-4.3-5-4.3-8.6c-0.1-5.9,2.6-12.2,7.2-16.5
			c0.3-0.3,0.6-0.5,0.9-0.8c-12.6,3.4-17.8,11.1-17.8,11.2c0,0.1-0.1,0.1-0.1,0.2c-39.9,51.2-57.7,66.1-58.4,66.7
			C265.9,283.7,265.4,283.9,264.9,283.9z M189.8,204c-3.6,0-6.7,1.1-11.6,5.7c-3.6,3.4-5.9,8.6-5.8,13.2c0,1.7,0.7,3.9,2.3,5
			c1.4,0.9,3.4,0.9,4.8,0.7c8.4-1.1,14.8-8.6,17.6-14.6c0.2-0.5,0.4-0.9,0.7-1.4c-0.6-0.4-1.1-0.9-1.6-1.5c-1.3-1.7-1.6-4.1-0.8-6.8
			c0,0,0-0.1,0-0.1c-0.4,0.2-0.8,0.3-1.2,0.2l-0.1,0C192.6,204.1,191.2,204,189.8,204z M362.1,204.1
			C362.1,204.1,362.1,204.1,362.1,204.1c-10.1,0.5-14.9,3.1-17.1,5.2c-3.6,3.4-5.9,8.6-5.8,13.2c0,1.7,0.7,3.9,2.3,5
			c1.4,0.9,3.4,0.9,4.8,0.7c8.4-1.1,14.8-8.6,17.6-14.6c0.2-0.5,0.4-0.9,0.7-1.4c-0.6-0.4-1.1-0.9-1.6-1.5
			C361.8,209,361.5,206.7,362.1,204.1z M200.5,203.8c-0.3,0.3-0.5,0.8-0.7,1.5c-0.3,1-0.3,1.8-0.1,2.4
			C200.1,206.5,200.4,205.2,200.5,203.8z M367.2,203.5c-0.3,0.3-0.5,0.8-0.7,1.5c-0.3,1-0.3,1.8-0.1,2.4
			C366.8,206.2,367.1,204.8,367.2,203.5z"/>
	</g>
	<g>
		<path class="st0" d="M444.8,232.8c-2.2,0-4.1-0.5-5.7-1.6c-2.6-1.7-4.3-5-4.3-8.6c-0.1-5.9,2.6-12.2,7.2-16.5
			c8.2-7.7,13.2-7.2,19.5-6.6c1,0.1,1.8,0.8,2,1.7c0.2-0.2,0.3-0.4,0.5-0.6c1.1-1.3,2.6-2,4.2-1.9c1,0,1.8,0.4,2.5,1
			c1.4,1.2,1.3,3.1,1.3,3.7c-0.1,1.9-0.5,3.9-1.1,5.7c0.8-0.1,1.7-0.2,2.5-0.4c1.8-0.4,3.7-1.2,5.6-2.2c0.1,0,0.2-0.1,0.3-0.1
			c0.2-0.1,5.8-2.1,13-4c1.2-0.3,2.4,0.4,2.7,1.6c0.3,1.2-0.4,2.4-1.6,2.7c-6.4,1.6-11.6,3.5-12.4,3.8c-2.2,1.1-4.4,2-6.5,2.5
			c-1,0.2-3.1,0.7-5.3,0.5c-0.3,0.7-0.6,1.4-0.9,2c-3.5,7.4-10.9,15.8-21.1,17.2C446.2,232.7,445.5,232.8,444.8,232.8z M456.6,203.6
			c-3.6,0-6.7,1.1-11.6,5.7c-3.6,3.4-5.9,8.6-5.8,13.2c0,1.7,0.7,3.9,2.3,5c1.4,0.9,3.4,0.9,4.8,0.7c8.4-1.1,14.8-8.6,17.6-14.6
			c0.2-0.5,0.4-0.9,0.7-1.4c-0.6-0.4-1.1-0.9-1.6-1.5c-1.3-1.7-1.6-4.1-0.8-6.8c0,0,0-0.1,0-0.1c-0.4,0.2-0.8,0.3-1.2,0.2l-0.1,0
			C459.4,203.8,458,203.6,456.6,203.6z M467.3,203.5c-0.3,0.3-0.5,0.8-0.7,1.5c-0.3,1-0.3,1.8-0.1,2.4
			C466.9,206.2,467.2,204.8,467.3,203.5z"/>
	</g>
	<g>
		<path class="st0" d="M308.3,187.6h-63.6c-1.2,0-2.3-1-2.3-2.3c0-1.2,1-2.3,2.3-2.3h63.6c1.2,0,2.3,1,2.3,2.3
			C310.6,186.6,309.6,187.6,308.3,187.6z"/>
	</g>
	<g>
		<path class="st0" d="M424.8,196.8c-3.3,0-5.9-2.7-5.9-5.9s2.7-5.9,5.9-5.9s5.9,2.7,5.9,5.9S428.1,196.8,424.8,196.8z M424.8,189.5
			c-0.8,0-1.4,0.6-1.4,1.4s0.6,1.4,1.4,1.4c0.8,0,1.4-0.6,1.4-1.4S425.6,189.5,424.8,189.5z"/>
	</g>
</g>
</svg>
